<svg width="40" height="40" viewBox="0 0 40 40" fill="none" xmlns="http://www.w3.org/2000/svg">
<rect width="40" height="40" rx="20" fill="#22B573"/>
<path fill-rule="evenodd" clip-rule="evenodd" d="M19.3517 16.7672C19.5207 16.5961 19.7499 16.5 19.9889 16.5C20.2279 16.5 20.4571 16.5961 20.6261 16.7672L25.7248 21.9307C25.8109 22.0149 25.8796 22.1156 25.9268 22.227C25.9741 22.3383 25.9989 22.4581 26 22.5793C26.001 22.7005 25.9782 22.8207 25.9329 22.9329C25.8876 23.045 25.8206 23.147 25.736 23.2327C25.6514 23.3184 25.5508 23.3861 25.44 23.432C25.3292 23.4779 25.2105 23.501 25.0909 23.5C24.9712 23.4989 24.8529 23.4737 24.743 23.4259C24.633 23.3781 24.5335 23.3085 24.4504 23.2213L19.9889 18.7032L15.5275 23.2213C15.3575 23.3876 15.1298 23.4796 14.8935 23.4775C14.6572 23.4755 14.4311 23.3795 14.264 23.2102C14.0969 23.041 14.0021 22.8121 14 22.5727C13.998 22.3334 14.0888 22.1029 14.253 21.9307L19.3517 16.7672Z" fill="white"/>
</svg>
