<svg width="40" height="40" viewBox="0 0 40 40" fill="none" xmlns="http://www.w3.org/2000/svg">
<rect width="40" height="40" rx="20" fill="#22B573"/>
<path fill-rule="evenodd" clip-rule="evenodd" d="M20.6483 23.2328C20.4793 23.4039 20.2501 23.5 20.0111 23.5C19.7721 23.5 19.5429 23.4039 19.3739 23.2328L14.2752 18.0693C14.1891 17.9851 14.1204 17.8844 14.0732 17.773C14.0259 17.6617 14.0011 17.5419 14 17.4207C13.999 17.2995 14.0218 17.1793 14.0671 17.0671C14.1124 16.955 14.1794 16.853 14.264 16.7673C14.3486 16.6816 14.4492 16.6139 14.56 16.568C14.6708 16.5221 14.7895 16.499 14.9091 16.5C15.0288 16.5011 15.1471 16.5263 15.257 16.5741C15.367 16.6219 15.4665 16.6915 15.5496 16.7787L20.0111 21.2968L24.4725 16.7787C24.6425 16.6124 24.8702 16.5204 25.1065 16.5225C25.3428 16.5245 25.5689 16.6205 25.736 16.7898C25.9031 16.959 25.9979 17.1879 26 17.4273C26.002 17.6666 25.9112 17.8971 25.747 18.0693L20.6483 23.2328Z" fill="white"/>
</svg>
