<svg width="60" height="60" viewBox="0 0 60 60" fill="none" xmlns="http://www.w3.org/2000/svg">
<rect width="60" height="60" rx="8" fill="#22B573"/>
<path d="M18 22.3333C18 21.1841 18.4565 20.0819 19.2692 19.2692C20.0819 18.4565 21.1841 18 22.3333 18H37.6667C38.8159 18 39.9181 18.4565 40.7308 19.2692C41.5435 20.0819 42 21.1841 42 22.3333V37.6667C42 38.8159 41.5435 39.9181 40.7308 40.7308C39.9181 41.5435 38.8159 42 37.6667 42H22.3333C21.1841 42 20.0819 41.5435 19.2692 40.7308C18.4565 39.9181 18 38.8159 18 37.6667V22.3333ZM23 23C22.7348 23 22.4804 23.1054 22.2929 23.2929C22.1054 23.4804 22 23.7348 22 24C22 24.2652 22.1054 24.5196 22.2929 24.7071C22.4804 24.8946 22.7348 25 23 25H37C37.2652 25 37.5196 24.8946 37.7071 24.7071C37.8946 24.5196 38 24.2652 38 24C38 23.7348 37.8946 23.4804 37.7071 23.2929C37.5196 23.1054 37.2652 23 37 23H23Z" fill="white"/>
</svg>
