<svg width="38" height="38" viewBox="0 0 38 38" fill="none" xmlns="http://www.w3.org/2000/svg">
<rect width="38" height="38" rx="19" fill="#22B573"/>
<path d="M26 20.0001C25.9998 20.6193 25.8353 21.2274 25.5232 21.7623C25.2112 22.2972 24.7629 22.7397 24.224 23.0448C23.685 23.3498 23.0748 23.5063 22.4556 23.4985C21.8364 23.4906 21.2304 23.3186 20.6994 23.0001H20.4219L20.9788 24.8563C21.0012 24.931 21.0058 25.0098 20.9923 25.0866C20.9788 25.1633 20.9476 25.2359 20.9011 25.2984C20.8546 25.361 20.7941 25.4118 20.7244 25.4468C20.6548 25.4818 20.578 25.5 20.5 25.5001H17.5C17.4221 25.5 17.3452 25.4818 17.2756 25.4468C17.2059 25.4118 17.1455 25.361 17.0989 25.2984C17.0524 25.2359 17.0212 25.1633 17.0077 25.0866C16.9942 25.0098 16.9989 24.931 17.0213 24.8563L17.5781 23.0001H17.3006C16.8382 23.278 16.3177 23.4452 15.78 23.4887C15.2422 23.5322 14.7016 23.4507 14.2005 23.2507C13.6994 23.0508 13.2513 22.7376 12.8913 22.3358C12.5312 21.934 12.2689 21.4544 12.1249 20.9344C11.9809 20.4145 11.959 19.8683 12.061 19.3385C12.1629 18.8087 12.386 18.3096 12.7128 17.8803C13.0396 17.451 13.4612 17.103 13.9447 16.8636C14.4282 16.6241 14.9605 16.4997 15.5 16.5001H15.6456C15.4901 15.9777 15.4586 15.4262 15.5538 14.8896C15.649 14.3529 15.8683 13.8459 16.1941 13.4089C16.5198 12.972 16.9432 12.6172 17.4303 12.3727C17.9175 12.1283 18.455 12.001 19 12.001C19.5451 12.001 20.0826 12.1283 20.5697 12.3727C21.0569 12.6172 21.4802 12.972 21.806 13.4089C22.1318 13.8459 22.351 14.3529 22.4462 14.8896C22.5414 15.4262 22.51 15.9777 22.3544 16.5001H22.5C23.428 16.5011 24.3176 16.8701 24.9738 17.5263C25.63 18.1824 25.999 19.0721 26 20.0001Z" fill="white"/>
</svg>
