<svg width="38" height="38" viewBox="0 0 38 38" fill="none" xmlns="http://www.w3.org/2000/svg">
<rect width="38" height="38" rx="19" fill="#22B573"/>
<path d="M12.234 14.73C12.9551 13.5875 13.9538 12.6463 15.1369 11.9941C16.32 11.3418 17.649 10.9999 19 11C20.3512 10.9997 21.6804 11.3416 22.8637 11.9938C24.047 12.6461 25.0458 13.5874 25.767 14.73L27.457 13.66C26.5554 12.2325 25.307 11.0565 23.8282 10.2416C22.3494 9.42679 20.6884 8.99964 19 9C17.3118 8.99981 15.6509 9.42703 14.1723 10.2419C12.6938 11.0567 11.4455 12.2326 10.544 13.66L12.234 14.73ZM19 27C17.649 27.0001 16.32 26.6582 15.1369 26.0059C13.9538 25.3537 12.9551 24.4125 12.234 23.27L10.544 24.34C11.4455 25.7674 12.6938 26.9433 14.1723 27.7581C15.6509 28.573 17.3118 29.0002 19 29C20.6884 29.0004 22.3494 28.5732 23.8282 27.7584C25.307 26.9435 26.5554 25.7675 27.457 24.34L25.767 23.27C25.0458 24.4126 24.047 25.3539 22.8637 26.0062C21.6804 26.6584 20.3512 27.0003 19 27ZM19 19C19.7956 19 20.5587 18.6839 21.1213 18.1213C21.6839 17.5587 22 16.7956 22 16C22 15.2044 21.6839 14.4413 21.1213 13.8787C20.5587 13.3161 19.7956 13 19 13C18.2044 13 17.4413 13.3161 16.8787 13.8787C16.3161 14.4413 16 15.2044 16 16C16 16.7956 16.3161 17.5587 16.8787 18.1213C17.4413 18.6839 18.2044 19 19 19ZM19 20C20.0609 20 21.0783 20.4214 21.8284 21.1716C22.5786 21.9217 23 22.9391 23 24H15C15 22.9391 15.4214 21.9217 16.1716 21.1716C16.9217 20.4214 17.9391 20 19 20ZM13 19C13 19.7956 12.6839 20.5587 12.1213 21.1213C11.5587 21.6839 10.7956 22 10 22C9.20435 22 8.44129 21.6839 7.87868 21.1213C7.31607 20.5587 7 19.7956 7 19C7 18.2044 7.31607 17.4413 7.87868 16.8787C8.44129 16.3161 9.20435 16 10 16C10.7956 16 11.5587 16.3161 12.1213 16.8787C12.6839 17.4413 13 18.2044 13 19ZM28 22C28.7956 22 29.5587 21.6839 30.1213 21.1213C30.6839 20.5587 31 19.7956 31 19C31 18.2044 30.6839 17.4413 30.1213 16.8787C29.5587 16.3161 28.7956 16 28 16C27.2044 16 26.4413 16.3161 25.8787 16.8787C25.3161 17.4413 25 18.2044 25 19C25 19.7956 25.3161 20.5587 25.8787 21.1213C26.4413 21.6839 27.2044 22 28 22Z" fill="white"/>
</svg>
