<svg width="32" height="32" viewBox="0 0 32 32" fill="none" xmlns="http://www.w3.org/2000/svg">
<path d="M24 24.6823C25.0505 24.6823 26.0908 24.5047 27.0615 24.16C28.032 23.8153 28.9138 23.31 29.6567 22.6729C30.3995 22.0358 30.9888 21.2796 31.3909 20.4472C31.7929 19.6149 32 18.7228 32 17.8219C32 16.921 31.7929 16.0289 31.3909 15.1965C30.9888 14.3642 30.3995 13.6079 29.6567 12.9709C28.9138 12.3338 28.032 11.8285 27.0615 11.4837C26.0908 11.1389 25.0505 10.9615 24 10.9615C22.603 10.9612 21.2307 11.2767 20.0213 11.8762H19.7973C20.9094 11.3122 21.8309 10.5095 22.4711 9.54711C23.1113 8.58473 23.4483 7.49591 23.4485 6.38793C23.4485 5.54905 23.2558 4.71838 22.8814 3.94336C22.507 3.16834 21.9584 2.46416 21.2667 1.87098C20.575 1.27781 19.7538 0.807275 18.85 0.486253C17.9463 0.16523 16.9776 0 15.9994 0C15.0212 0 14.0526 0.16523 13.1488 0.486253C12.245 0.807275 11.4239 1.27781 10.7322 1.87098C10.0405 2.46416 9.49175 3.16834 9.11739 3.94336C8.74306 4.71838 8.55038 5.54905 8.55038 6.38793C8.55058 7.49591 8.8874 8.58473 9.52763 9.54711C10.1679 10.5095 11.0895 11.3122 12.2016 11.8762H11.9797C10.8064 11.2972 9.45065 10.9615 7.99998 10.9615C5.87825 10.9615 3.84342 11.6843 2.34315 12.9709C0.842852 14.2574 0 16.0024 0 17.8219C0 19.6414 0.842852 21.3863 2.34315 22.6729C3.84342 23.9596 5.87825 24.6823 7.99998 24.6823C9.09195 24.6823 10.1723 24.4903 11.1741 24.1177C12.176 23.7449 13.0779 23.2 13.824 22.5162C13.3856 26.2857 8.75198 29.2558 4.26666 29.2558H4.79999C4.37565 29.2558 3.96868 29.4005 3.66861 29.6576C3.36856 29.915 3.19999 30.264 3.19999 30.6279C3.19999 30.9918 3.36856 31.3408 3.66861 31.5982C3.96868 31.8553 4.37565 32 4.79999 32H27.2C27.6242 32 28.0313 31.8553 28.3312 31.5982C28.6313 31.3408 28.8 30.9918 28.8 30.6279C28.8 30.264 28.6313 29.915 28.3312 29.6576C28.0313 29.4005 27.6242 29.2558 27.2 29.2558H27.7333C23.248 29.2558 18.6143 26.2848 18.177 22.5153C18.9227 23.1993 19.8243 23.7447 20.826 24.1175C21.8277 24.4903 22.9079 24.6825 24 24.6823Z" fill="#22B573"/>
</svg>
