<svg width="76" height="80" viewBox="0 0 76 80" fill="none" xmlns="http://www.w3.org/2000/svg">
<g filter="url(#filter0_dd_278_17099)">
<rect x="10" y="12" width="56" height="56" rx="28" fill="#22B573" shape-rendering="crispEdges"/>
<path d="M44 46.5117C44.7879 46.5117 45.5681 46.3786 46.2961 46.12C47.0241 45.8615 47.6855 45.4825 48.2426 45.0047C48.7998 44.5269 49.2417 43.9597 49.5433 43.3354C49.8448 42.7112 50 42.0421 50 41.3664C50 40.6907 49.8448 40.0217 49.5433 39.3974C49.2417 38.7731 48.7998 38.2059 48.2426 37.7282C47.6855 37.2504 47.0241 36.8714 46.2961 36.6128C45.5681 36.3542 44.7879 36.2211 44 36.2211C42.9523 36.2209 41.9231 36.4576 41.016 36.9072H40.848C41.6821 36.4842 42.3733 35.8821 42.8535 35.1603C43.3336 34.4385 43.5862 33.6219 43.5864 32.7909C43.5864 32.1618 43.4419 31.5388 43.1611 30.9575C42.8804 30.3763 42.4688 29.8481 41.9501 29.4032C41.4313 28.9584 40.8154 28.6055 40.1376 28.3647C39.4598 28.1239 38.7333 28 37.9996 28C37.2659 28 36.5394 28.1239 35.8616 28.3647C35.1838 28.6055 34.5679 28.9584 34.0491 29.4032C33.5304 29.8481 33.1188 30.3763 32.8381 30.9575C32.5573 31.5388 32.4128 32.1618 32.4128 32.7909C32.413 33.6219 32.6656 34.4385 33.1458 35.1603C33.6259 35.8821 34.3171 36.4842 35.1512 36.9072H34.9848C34.1048 36.4729 33.088 36.2211 32 36.2211C30.4087 36.2211 28.8826 36.7632 27.7574 37.7282C26.6321 38.6931 26 40.0018 26 41.3664C26 42.731 26.6321 44.0398 27.7574 45.0047C28.8826 45.9696 30.4087 46.5117 32 46.5117C32.819 46.5118 33.6293 46.3677 34.3806 46.0882C35.132 45.8088 35.8084 45.4 36.368 44.8872C36.0392 47.7143 32.564 49.9419 29.2 49.9419H29.6C29.2817 49.9419 28.9765 50.0503 28.7515 50.2433C28.5264 50.4363 28.4 50.698 28.4 50.9709C28.4 51.2439 28.5264 51.5056 28.7515 51.6986C28.9765 51.8916 29.2817 52 29.6 52H46.4C46.7183 52 47.0235 51.8916 47.2485 51.6986C47.4736 51.5056 47.6 51.2439 47.6 50.9709C47.6 50.698 47.4736 50.4363 47.2485 50.2433C47.0235 50.0503 46.7183 49.9419 46.4 49.9419H46.8C43.436 49.9419 39.9608 47.7136 39.6328 44.8865C40.192 45.3995 40.8683 45.8085 41.6195 46.0881C42.3708 46.3677 43.181 46.5119 44 46.5117Z" fill="white"/>
</g>
<defs>
<filter id="filter0_dd_278_17099" x="0" y="0" width="76" height="80" filterUnits="userSpaceOnUse" color-interpolation-filters="sRGB">
<feFlood flood-opacity="0" result="BackgroundImageFix"/>
<feColorMatrix in="SourceAlpha" type="matrix" values="0 0 0 0 0 0 0 0 0 0 0 0 0 0 0 0 0 0 127 0" result="hardAlpha"/>
<feOffset dx="2" dy="4"/>
<feGaussianBlur stdDeviation="4"/>
<feComposite in2="hardAlpha" operator="out"/>
<feColorMatrix type="matrix" values="0 0 0 0 0.133333 0 0 0 0 0.709804 0 0 0 0 0.45098 0 0 0 0.6 0"/>
<feBlend mode="normal" in2="BackgroundImageFix" result="effect1_dropShadow_278_17099"/>
<feColorMatrix in="SourceAlpha" type="matrix" values="0 0 0 0 0 0 0 0 0 0 0 0 0 0 0 0 0 0 127 0" result="hardAlpha"/>
<feOffset dx="-2" dy="-4"/>
<feGaussianBlur stdDeviation="4"/>
<feComposite in2="hardAlpha" operator="out"/>
<feColorMatrix type="matrix" values="0 0 0 0 0.133333 0 0 0 0 0.709804 0 0 0 0 0.45098 0 0 0 0.6 0"/>
<feBlend mode="normal" in2="effect1_dropShadow_278_17099" result="effect2_dropShadow_278_17099"/>
<feBlend mode="normal" in="SourceGraphic" in2="effect2_dropShadow_278_17099" result="shape"/>
</filter>
</defs>
</svg>
