<svg width="60" height="60" viewBox="0 0 60 60" fill="none" xmlns="http://www.w3.org/2000/svg">
<rect width="60" height="60" rx="8" fill="#22B573"/>
<path d="M36 36.5117C36.7879 36.5117 37.5681 36.3785 38.2961 36.12C39.024 35.8615 39.6854 35.4825 40.2425 35.0047C40.7997 34.5269 41.2416 33.9597 41.5431 33.3354C41.8447 32.7112 42 32.0421 42 31.3664C42 30.6907 41.8447 30.0216 41.5431 29.3974C41.2416 28.7731 40.7997 28.2059 40.2425 27.7281C39.6854 27.2504 39.024 26.8714 38.2961 26.6128C37.5681 26.3542 36.7879 26.2211 36 26.2211C34.9522 26.2209 33.923 26.4575 33.016 26.9072H32.848C33.682 26.4842 34.3732 25.8821 34.8533 25.1603C35.3335 24.4385 35.5862 23.6219 35.5864 22.7909C35.5864 22.1618 35.4418 21.5388 35.161 20.9575C34.8802 20.3763 34.4688 19.8481 33.95 19.4032C33.4312 18.9584 32.8154 18.6055 32.1375 18.3647C31.4597 18.1239 30.7332 18 29.9996 18C29.2659 18 28.5394 18.1239 27.8616 18.3647C27.1838 18.6055 26.5679 18.9584 26.0491 19.4032C25.5303 19.8481 25.1188 20.3763 24.838 20.9575C24.5573 21.5388 24.4128 22.1618 24.4128 22.7909C24.4129 23.6219 24.6656 24.4385 25.1457 25.1603C25.6259 25.8821 26.3171 26.4842 27.1512 26.9072H26.9848C26.1048 26.4729 25.088 26.2211 24 26.2211C22.4087 26.2211 20.8826 26.7632 19.7574 27.7281C18.6321 28.6931 18 30.0018 18 31.3664C18 32.731 18.6321 34.0397 19.7574 35.0047C20.8826 35.9697 22.4087 36.5117 24 36.5117C24.819 36.5117 25.6293 36.3677 26.3806 36.0883C27.132 35.8087 27.8084 35.4 28.368 34.8871C28.0392 37.7143 24.564 39.9418 21.2 39.9418H21.6C21.2817 39.9418 20.9765 40.0503 20.7515 40.2432C20.5264 40.4362 20.4 40.698 20.4 40.9709C20.4 41.2438 20.5264 41.5056 20.7515 41.6986C20.9765 41.8915 21.2817 42 21.6 42H38.4C38.7182 42 39.0235 41.8915 39.2484 41.6986C39.4735 41.5056 39.6 41.2438 39.6 40.9709C39.6 40.698 39.4735 40.4362 39.2484 40.2432C39.0235 40.0503 38.7182 39.9418 38.4 39.9418H38.8C35.436 39.9418 31.9608 37.7136 31.6328 34.8865C32.192 35.3995 32.8682 35.8085 33.6195 36.0881C34.3708 36.3677 35.1809 36.5119 36 36.5117Z" fill="white"/>
</svg>
