<svg width="45" height="48" viewBox="0 0 45 48" fill="none" xmlns="http://www.w3.org/2000/svg">
<path d="M22.4677 38.4871C17.0884 38.4871 12.649 36.9904 10.5812 34.5509C7.1396 30.4202 7.1396 16.591 10.5812 12.4902C12.649 10.0506 17.0884 8.55396 22.4677 8.55396C27.847 8.55396 32.2864 10.0506 34.3542 12.4902C37.7959 16.621 37.7959 30.4501 34.3542 34.5509C32.2864 36.9904 27.847 38.4871 22.4677 38.4871ZM22.4677 11.5473C18.1296 11.5473 14.2252 12.7147 12.7647 14.4508C10.292 17.4441 10.292 29.6269 12.7647 32.5903C14.2252 34.3265 18.1296 35.4938 22.4677 35.4938C26.8059 35.4938 30.7102 34.3265 32.1707 32.5903C34.6434 29.597 34.6434 17.4142 32.1707 14.4508C30.7102 12.7147 26.8059 11.5473 22.4677 11.5473Z" fill="#343A40"/>
<path d="M22.4739 18.9709C23.4727 18.9709 24.2824 18.1668 24.2824 17.1749C24.2824 16.183 23.4727 15.3789 22.4739 15.3789C21.4752 15.3789 20.6655 16.183 20.6655 17.1749C20.6655 18.1668 21.4752 18.9709 22.4739 18.9709Z" fill="#22B573"/>
<path d="M22.4734 30.824C22.0897 30.824 21.7217 30.6726 21.4504 30.4032C21.1791 30.1337 21.0266 29.7681 21.0266 29.3872V23.64C20.6429 23.64 20.2749 23.4886 20.0036 23.2191C19.7323 22.9497 19.5799 22.5842 19.5799 22.2032C19.5799 21.8221 19.7323 21.4566 20.0036 21.1872C20.2749 20.9177 20.6429 20.7664 21.0266 20.7664H22.4734C22.8571 20.7664 23.2251 20.9177 23.4964 21.1872C23.7678 21.4566 23.9202 21.8221 23.9202 22.2032V29.3872C23.9202 29.7681 23.7678 30.1337 23.4964 30.4032C23.2251 30.6726 22.8571 30.824 22.4734 30.824Z" fill="#22B573"/>
<path d="M23.9202 30.8243H21.0266C20.6429 30.8243 20.2749 30.6729 20.0036 30.4035C19.7323 30.134 19.5799 29.7686 19.5799 29.3875C19.5799 29.0065 19.7323 28.6411 20.0036 28.3716C20.2749 28.102 20.6429 27.9507 21.0266 27.9507H23.9202C24.304 27.9507 24.6719 28.102 24.9433 28.3716C25.2146 28.6411 25.367 29.0065 25.367 29.3875C25.367 29.7686 25.2146 30.134 24.9433 30.4035C24.6719 30.6729 24.304 30.8243 23.9202 30.8243Z" fill="#22B573"/>
</svg>
