<svg width="38" height="38" viewBox="0 0 38 38" fill="none" xmlns="http://www.w3.org/2000/svg">
<rect width="38" height="38" rx="19" fill="#22B573"/>
<path d="M9.75 14.57C9.75 11.96 12.047 9.75 15 9.75C17.182 9.75 19.024 10.968 19.822 12.66C19.9069 12.8399 20.0597 12.9788 20.247 13.046C20.4343 13.1133 20.6406 13.1034 20.8205 13.0185C21.0005 12.9336 21.1393 12.7808 21.2065 12.5935C21.2738 12.4062 21.2639 12.1999 21.179 12.02C20.122 9.78 17.737 8.25 15 8.25C11.326 8.25 8.25 11.028 8.25 14.57C8.25 15.88 8.676 17.094 9.399 18.098L8.687 20.19C8.327 21.249 9.504 22.165 10.442 21.56L12.296 20.362C12.6267 20.4973 12.97 20.6077 13.326 20.693C13.5187 20.737 13.7209 20.7031 13.8888 20.5988C14.0567 20.4944 14.1765 20.3281 14.2224 20.1358C14.2683 19.9436 14.2364 19.741 14.1337 19.5721C14.031 19.4032 13.8658 19.2817 13.674 19.234C13.2884 19.142 12.9139 19.0085 12.557 18.836L12.177 18.653L10.405 19.798L11.083 17.803L10.816 17.481C10.1309 16.6654 9.75363 15.6352 9.75 14.57ZM19.2 21.62C18.87 20.63 19.26 19.41 20.34 19.07C20.9 18.9 21.6 19.04 22 19.57C22.38 19.02 23.1 18.9 23.66 19.07C24.74 19.4 25.13 20.63 24.8 21.62C24.29 23.19 22.5 24 22 24C21.5 24 19.73 23.2 19.2 21.62Z" fill="white"/>
<path d="M22 14.25C17.773 14.25 14.25 17.445 14.25 21.5C14.25 25.555 17.773 28.75 22 28.75C23.0871 28.7517 24.1636 28.5372 25.167 28.119L27.385 29.552C28.38 30.195 29.629 29.222 29.247 28.1L28.396 25.596C29.2735 24.4105 29.7481 22.975 29.75 21.5C29.75 17.445 26.227 14.25 22 14.25ZM15.75 21.5C15.75 18.376 18.495 15.75 22 15.75C25.505 15.75 28.25 18.376 28.25 21.5C28.2461 22.7723 27.7956 24.0029 26.977 24.977L26.71 25.3L27.595 27.902L25.285 26.408L24.905 26.592C23.9988 27.0278 23.0056 27.2528 22 27.25C18.495 27.25 15.75 24.624 15.75 21.5ZM12.5 12.5C12.3674 12.5 12.2402 12.5527 12.1464 12.6464C12.0527 12.7402 12 12.8674 12 13C12 13.1326 12.0527 13.2598 12.1464 13.3536C12.2402 13.4473 12.3674 13.5 12.5 13.5H17.5C17.6326 13.5 17.7598 13.4473 17.8536 13.3536C17.9473 13.2598 18 13.1326 18 13C18 12.8674 17.9473 12.7402 17.8536 12.6464C17.7598 12.5527 17.6326 12.5 17.5 12.5H12.5ZM12 17C12 16.8674 12.0527 16.7402 12.1464 16.6464C12.2402 16.5527 12.3674 16.5 12.5 16.5H13.5C13.6326 16.5 13.7598 16.5527 13.8536 16.6464C13.9473 16.7402 14 16.8674 14 17C14 17.1326 13.9473 17.2598 13.8536 17.3536C13.7598 17.4473 13.6326 17.5 13.5 17.5H12.5C12.3674 17.5 12.2402 17.4473 12.1464 17.3536C12.0527 17.2598 12 17.1326 12 17ZM12.5 14.5C12.3674 14.5 12.2402 14.5527 12.1464 14.6464C12.0527 14.7402 12 14.8674 12 15C12 15.1326 12.0527 15.2598 12.1464 15.3536C12.2402 15.4473 12.3674 15.5 12.5 15.5H15.5C15.6326 15.5 15.7598 15.4473 15.8536 15.3536C15.9473 15.2598 16 15.1326 16 15C16 14.8674 15.9473 14.7402 15.8536 14.6464C15.7598 14.5527 15.6326 14.5 15.5 14.5H12.5Z" fill="white"/>
</svg>
