<svg width="38" height="38" viewBox="0 0 38 38" fill="none" xmlns="http://www.w3.org/2000/svg">
<rect width="38" height="38" rx="19" fill="#22B573"/>
<path d="M23 11.75C23 11.5511 23.079 11.3603 23.2196 11.2197C23.3603 11.079 23.5511 11 23.75 11H26.25C26.4489 11 26.6396 11.079 26.7803 11.2197C26.921 11.3603 27 11.5511 27 11.75V14.25C27 14.4489 26.921 14.6397 26.7803 14.7803C26.6396 14.921 26.4489 15 26.25 15C26.0511 15 25.8603 14.921 25.7196 14.7803C25.579 14.6397 25.5 14.4489 25.5 14.25V13.56L21.03 18.03C20.8893 18.1705 20.6987 18.2493 20.5 18.2493C20.3012 18.2493 20.1106 18.1705 19.97 18.03L17.5 15.56L13.28 19.78C13.2113 19.8537 13.1285 19.9128 13.0365 19.9538C12.9445 19.9948 12.8452 20.0168 12.7445 20.0186C12.6438 20.0204 12.5438 20.0018 12.4504 19.9641C12.357 19.9264 12.2722 19.8703 12.2009 19.799C12.1297 19.7278 12.0736 19.643 12.0358 19.5496C11.9981 19.4562 11.9796 19.3562 11.9814 19.2555C11.9832 19.1548 12.0052 19.0555 12.0462 18.9635C12.0872 18.8715 12.1463 18.7887 12.22 18.72L16.97 13.97C17.1106 13.8295 17.3012 13.7507 17.5 13.7507C17.6987 13.7507 17.8893 13.8295 18.03 13.97L20.5 16.44L24.44 12.5H23.75C23.5511 12.5 23.3603 12.421 23.2196 12.2803C23.079 12.1397 23 11.9489 23 11.75ZM12.75 23C12.9489 23 13.1396 23.079 13.2803 23.2197C13.421 23.3603 13.5 23.5511 13.5 23.75V26.25C13.5 26.4489 13.421 26.6397 13.2803 26.7803C13.1396 26.921 12.9489 27 12.75 27C12.5511 27 12.3603 26.921 12.2196 26.7803C12.079 26.6397 12 26.4489 12 26.25V23.75C12 23.5511 12.079 23.3603 12.2196 23.2197C12.3603 23.079 12.5511 23 12.75 23ZM17.5 20.75C17.5 20.5511 17.421 20.3603 17.2803 20.2197C17.1396 20.079 16.9489 20 16.75 20C16.5511 20 16.3603 20.079 16.2196 20.2197C16.079 20.3603 16 20.5511 16 20.75V26.25C16 26.4489 16.079 26.6397 16.2196 26.7803C16.3603 26.921 16.5511 27 16.75 27C16.9489 27 17.1396 26.921 17.2803 26.7803C17.421 26.6397 17.5 26.4489 17.5 26.25V20.75ZM20.75 22C20.9489 22 21.1396 22.079 21.2803 22.2197C21.421 22.3603 21.5 22.5511 21.5 22.75V26.25C21.5 26.4489 21.421 26.6397 21.2803 26.7803C21.1396 26.921 20.9489 27 20.75 27C20.5511 27 20.3603 26.921 20.2196 26.7803C20.079 26.6397 20 26.4489 20 26.25V22.75C20 22.5511 20.079 22.3603 20.2196 22.2197C20.3603 22.079 20.5511 22 20.75 22ZM25.5 18.75C25.5 18.5511 25.421 18.3603 25.2803 18.2197C25.1396 18.079 24.9489 18 24.75 18C24.5511 18 24.3603 18.079 24.2196 18.2197C24.079 18.3603 24 18.5511 24 18.75V26.25C24 26.4489 24.079 26.6397 24.2196 26.7803C24.3603 26.921 24.5511 27 24.75 27C24.9489 27 25.1396 26.921 25.2803 26.7803C25.421 26.6397 25.5 26.4489 25.5 26.25V18.75Z" fill="white"/>
</svg>
