<svg width="68" height="68" viewBox="0 0 68 68" fill="none" xmlns="http://www.w3.org/2000/svg">
<path d="M48.3667 9.63334C53.8896 9.63336 58.3667 14.1105 58.3667 19.6333L58.3667 48.3667C58.3667 53.8895 53.8896 58.3667 48.3667 58.3667L19.6333 58.3667C14.1105 58.3667 9.63338 53.8896 9.63335 48.3667L9.63335 19.6333C9.63335 14.1105 14.1105 9.63334 19.6333 9.63334L48.3667 9.63334ZM32.2808 20.7056C25.1311 20.7058 19.32 26.5132 19.3199 33.6578C19.3199 40.8023 25.131 46.6097 32.2808 46.6099C34.0301 46.6099 35.7128 46.2659 37.3091 45.5972C37.5575 45.4922 37.7105 45.2532 37.7105 44.9859L37.73 41.8531C37.7301 41.5283 37.9882 41.271 38.313 41.271H42.3843C42.6521 41.271 42.8626 41.0606 42.8628 40.7935V36.7242C42.8628 36.3993 43.121 36.1412 43.4458 36.1412H47.5181C47.7857 36.1411 47.9957 35.9309 47.9957 35.6636L47.9957 31.4136C47.9957 31.1652 47.7857 30.9546 47.5181 30.9546H43.4458C43.121 30.9546 42.8628 30.6965 42.8628 30.3716V26.312C42.8626 26.0449 42.6521 25.8345 42.3843 25.8345H38.313C37.9882 25.8345 37.7302 25.5773 37.73 25.2525L37.7105 22.3199C37.7105 22.0523 37.5479 21.8135 37.3091 21.7085C35.7222 21.0495 34.0301 20.7056 32.2808 20.7056ZM37.0796 36.1607C37.4045 36.1607 37.6625 36.4182 37.6626 36.7427V40.6304C37.6626 40.9553 37.4045 41.2134 37.0796 41.2134H33.189C32.8643 41.2132 32.606 40.9552 32.606 40.6304V36.7427C32.6061 36.4183 32.8736 36.1609 33.189 36.1607H37.0796ZM42.2124 31.0406C42.5374 31.0406 42.7964 31.299 42.7964 31.6236L42.7964 35.5103C42.7964 35.8352 42.5374 36.0933 42.2124 36.0933H38.3228C37.9979 36.0933 37.7388 35.8352 37.7388 35.5103V31.6236C37.7388 31.299 37.9979 31.0406 38.3228 31.0406H42.2124ZM31.9566 31.0308C32.2814 31.0309 32.5396 31.2893 32.5396 31.6138V35.5015C32.53 35.8165 32.2717 36.0845 31.9468 36.0845H28.066C27.7408 36.0845 27.483 35.8261 27.483 35.5015V31.6138C27.483 31.2892 27.7408 31.0308 28.066 31.0308H31.9566ZM37.0796 25.9117C37.4045 25.9117 37.6625 26.1692 37.6626 26.4937V30.3814C37.6533 30.6967 37.3949 30.9546 37.0796 30.9546H33.189C32.8643 30.9544 32.606 30.6964 32.606 30.3716V26.4937C32.6061 26.1693 32.8644 25.9118 33.189 25.9117H37.0796Z" fill="#22B573"/>
</svg>
