<svg width="60" height="60" viewBox="0 0 60 60" fill="none" xmlns="http://www.w3.org/2000/svg">
<rect width="60" height="60" rx="8" fill="#22B573"/>
<path d="M18 22.125C18 20.676 19.176 19.5 20.625 19.5H25.5C26.325 19.5 27.105 19.89 27.6 20.55L28.95 22.35C28.9849 22.3966 29.0302 22.4344 29.0823 22.4604C29.1344 22.4864 29.1918 22.5 29.25 22.5H39.375C40.824 22.5 42 23.676 42 25.125V37.875C42 38.5712 41.7234 39.2389 41.2312 39.7312C40.7389 40.2234 40.0712 40.5 39.375 40.5H20.625C19.9288 40.5 19.2611 40.2234 18.7688 39.7312C18.2766 39.2389 18 38.5712 18 37.875V22.125ZM32.13 36.165L36.4545 32.1495C36.4922 32.1144 36.5223 32.0719 36.5428 32.0247C36.5634 31.9775 36.574 31.9265 36.574 31.875C36.574 31.8235 36.5634 31.7725 36.5428 31.7253C36.5223 31.6781 36.4922 31.6356 36.4545 31.6005L32.13 27.585C32.0768 27.5347 32.0099 27.5012 31.9378 27.4886C31.8657 27.476 31.7914 27.4848 31.7243 27.5141C31.6572 27.5433 31.6001 27.5917 31.5602 27.6531C31.5204 27.7145 31.4994 27.7863 31.5 27.8595V30.75H25.125C24.8266 30.75 24.5405 30.8685 24.3295 31.0795C24.1185 31.2905 24 31.5766 24 31.875C24 32.1734 24.1185 32.4595 24.3295 32.6705C24.5405 32.8815 24.8266 33 25.125 33H31.5V35.8905C31.5 36.2175 31.89 36.387 32.13 36.165Z" fill="white"/>
</svg>
