<svg width="60" height="60" viewBox="0 0 60 60" fill="none" xmlns="http://www.w3.org/2000/svg">
<rect width="60" height="60" rx="8" fill="#22B573"/>
<path d="M23 43.5C22.0278 43.5 21.2014 43.1577 20.5209 42.473C19.8403 41.7881 19.5 40.9566 19.5 39.9783C19.5 39.0001 19.8403 38.1686 20.5209 37.4837C21.2014 36.799 22.0278 36.4567 23 36.4567C23.2723 36.4567 23.525 36.4859 23.7584 36.5446C23.9917 36.6033 24.2153 36.6817 24.4292 36.7793L26.0917 34.6957C25.5473 34.0891 25.1681 33.4044 24.9542 32.6413C24.7403 31.8782 24.6917 31.1153 24.8084 30.3522L22.4458 29.5598C22.1153 30.0489 21.6972 30.4402 21.1917 30.7337C20.6861 31.0272 20.1222 31.174 19.5 31.174C18.5278 31.174 17.7014 30.8315 17.0208 30.1468C16.3403 29.4619 16 28.6304 16 27.6522C16 26.6739 16.3403 25.8424 17.0208 25.1576C17.7014 24.4729 18.5278 24.1305 19.5 24.1305C20.4722 24.1305 21.2986 24.4729 21.9792 25.1576C22.6597 25.8424 23 26.6739 23 27.6522V27.887L25.3625 28.7087C25.7514 28.0043 26.2716 27.4076 26.9229 26.9185C27.5743 26.4293 28.3084 26.1164 29.125 25.9794V23.426C28.3667 23.2108 27.7396 22.7951 27.2438 22.1787C26.7479 21.5625 26.5 20.8435 26.5 20.0218C26.5 19.0435 26.8403 18.212 27.5209 17.5272C28.2014 16.8424 29.0278 16.5 30 16.5C30.9723 16.5 31.7987 16.8424 32.4792 17.5272C33.1598 18.212 33.5001 19.0435 33.5001 20.0218C33.5001 20.8435 33.2473 21.5625 32.7417 22.1787C32.2362 22.7951 31.6139 23.2108 30.875 23.426V25.9794C31.6917 26.1164 32.4257 26.4293 33.0771 26.9185C33.7285 27.4076 34.2487 28.0043 34.6376 28.7087L37 27.887V27.6522C37 26.6739 37.3404 25.8424 38.0208 25.1576C38.7015 24.4729 39.5278 24.1305 40.5001 24.1305C41.4723 24.1305 42.2987 24.4729 42.9793 25.1576C43.6598 25.8424 44 26.6739 44 27.6522C44 28.6304 43.6598 29.4619 42.9793 30.1468C42.2987 30.8315 41.4723 31.174 40.5001 31.174C39.8778 31.174 39.3092 31.0272 38.7938 30.7337C38.2786 30.4402 37.8653 30.0489 37.5543 29.5598L35.1917 30.3522C35.3083 31.1153 35.2597 31.8733 35.0458 32.6266C34.8321 33.38 34.4529 34.0695 33.9085 34.6957L35.5709 36.7501C35.7848 36.6522 36.0084 36.5788 36.2418 36.5299C36.4751 36.481 36.7278 36.4567 37 36.4567C37.9722 36.4567 38.7988 36.799 39.4792 37.4837C40.1599 38.1686 40.5001 39.0001 40.5001 39.9783C40.5001 40.9566 40.1599 41.7881 39.4792 42.473C38.7988 43.1577 37.9722 43.5 37 43.5C36.0279 43.5 35.2014 43.1577 34.5209 42.473C33.8403 41.7881 33.5001 40.9566 33.5001 39.9783C33.5001 39.5869 33.5633 39.2103 33.6896 38.8485C33.816 38.4865 33.9862 38.1588 34.2001 37.8652L32.5376 35.7816C31.7403 36.2315 30.8896 36.4567 29.9855 36.4567C29.0813 36.4567 28.2306 36.2315 27.4334 35.7816L25.8 37.8652C26.0139 38.1588 26.1841 38.4865 26.3104 38.8485C26.4368 39.2103 26.5 39.5869 26.5 39.9783C26.5 40.9566 26.1598 41.7881 25.4792 42.473C24.7986 43.1577 23.9723 43.5 23 43.5Z" fill="white"/>
</svg>
