<svg width="33" height="32" viewBox="0 0 33 32" fill="none" xmlns="http://www.w3.org/2000/svg">
<path d="M8.25004 32C7.10418 32 6.13022 31.5943 5.32815 30.7828C4.52605 29.9711 4.12502 28.9856 4.12502 27.8262C4.12502 26.6667 4.52605 25.6813 5.32815 24.8696C6.13022 24.0581 7.10418 23.6524 8.25004 23.6524C8.57087 23.6524 8.86877 23.687 9.14377 23.7566C9.41877 23.8261 9.68231 23.919 9.93441 24.0348L11.8938 21.5653C11.2521 20.8464 10.8052 20.0348 10.5532 19.1305C10.3011 18.2261 10.2438 17.3218 10.3813 16.4174L7.59689 15.4783C7.20732 16.058 6.71461 16.5217 6.11876 16.8696C5.52293 17.2174 4.85834 17.3914 4.12502 17.3914C2.97918 17.3914 2.00521 16.9855 1.20313 16.174C0.401043 15.3623 0 14.3768 0 13.2175C0 12.058 0.401043 11.0725 1.20313 10.2609C2.00521 9.4493 2.97918 9.04352 4.12502 9.04352C5.27085 9.04352 6.24481 9.4493 7.04691 10.2609C7.84899 11.0725 8.25004 12.058 8.25004 13.2175V13.4957L11.0344 14.4695C11.4927 13.6348 12.1058 12.9275 12.8735 12.3478C13.6412 11.7681 14.5063 11.3972 15.4688 11.2348V8.20865C14.575 7.95358 13.836 7.4609 13.2516 6.73037C12.6672 6.00002 12.375 5.1479 12.375 4.17393C12.375 3.01448 12.7761 2.02898 13.5782 1.21742C14.3803 0.405778 15.3542 0 16.5 0C17.6459 0 18.6199 0.405778 19.4219 1.21742C20.224 2.02898 20.6251 3.01448 20.6251 4.17393C20.6251 5.1479 20.3272 6.00002 19.7313 6.73037C19.1355 7.4609 18.4021 7.95358 17.5313 8.20865V11.2348C18.4938 11.3972 19.3589 11.7681 20.1266 12.3478C20.8943 12.9275 21.5074 13.6348 21.9657 14.4695L24.75 13.4957V13.2175C24.75 12.058 25.1512 11.0725 25.9531 10.2609C26.7553 9.4493 27.7292 9.04352 28.8751 9.04352C30.021 9.04352 30.9949 9.4493 31.7971 10.2609C32.599 11.0725 33 12.058 33 13.2175C33 14.3768 32.599 15.3623 31.7971 16.174C30.9949 16.9855 30.021 17.3914 28.8751 17.3914C28.1416 17.3914 27.4715 17.2174 26.8641 16.8696C26.257 16.5217 25.7698 16.058 25.4033 15.4783L22.6188 16.4174C22.7562 17.3218 22.6989 18.2202 22.4468 19.113C22.195 20.0059 21.7481 20.8232 21.1064 21.5653L23.0657 24.0001C23.3178 23.8841 23.5813 23.7971 23.8564 23.7391C24.1314 23.6811 24.4291 23.6524 24.75 23.6524C25.8958 23.6524 26.87 24.0581 27.6719 24.8696C28.4741 25.6813 28.8751 26.6667 28.8751 27.8262C28.8751 28.9856 28.4741 29.9711 27.6719 30.7828C26.87 31.5943 25.8958 32 24.75 32C23.6043 32 22.6302 31.5943 21.8282 30.7828C21.026 29.9711 20.6251 28.9856 20.6251 27.8262C20.6251 27.3622 20.6995 26.9159 20.8485 26.4871C20.9974 26.058 21.198 25.6697 21.4501 25.3218L19.4907 22.8522C18.5511 23.3855 17.5485 23.6524 16.4829 23.6524C15.4172 23.6524 14.4146 23.3855 13.475 22.8522L11.55 25.3218C11.8021 25.6697 12.0026 26.058 12.1516 26.4871C12.3006 26.9159 12.375 27.3622 12.375 27.8262C12.375 28.9856 11.974 29.9711 11.1719 30.7828C10.3698 31.5943 9.39587 32 8.25004 32Z" fill="#22B573"/>
</svg>
