<svg width="76" height="80" viewBox="0 0 76 80" fill="none" xmlns="http://www.w3.org/2000/svg">
<g filter="url(#filter0_dd_278_17101)">
<rect x="10" y="12" width="56" height="56" rx="28" fill="#22B573" shape-rendering="crispEdges"/>
<path d="M31.75 52C30.8819 52 30.1441 51.6956 29.5365 51.0869C28.9288 50.4782 28.625 49.7391 28.625 48.8696C28.625 48 28.9288 47.2609 29.5365 46.6521C30.1441 46.0435 30.8819 45.7391 31.75 45.7391C31.9931 45.7391 32.2188 45.7652 32.4271 45.8174C32.6354 45.8695 32.8351 45.9391 33.026 46.026L34.5104 44.1739C34.0243 43.6347 33.6858 43.0261 33.4948 42.3478C33.3038 41.6695 33.2604 40.9913 33.3646 40.313L31.2552 39.6087C30.9601 40.0435 30.5868 40.3913 30.1354 40.6522C29.684 40.913 29.1806 41.0435 28.625 41.0435C27.7569 41.0435 27.0191 40.7391 26.4115 40.1304C25.8038 39.5217 25.5 38.7826 25.5 37.9131C25.5 37.0435 25.8038 36.3044 26.4115 35.6956C27.0191 35.087 27.7569 34.7826 28.625 34.7826C29.4931 34.7826 30.2309 35.087 30.8385 35.6956C31.4462 36.3044 31.75 37.0435 31.75 37.9131V38.1218L33.8594 38.8521C34.2066 38.226 34.671 37.6956 35.2526 37.2608C35.8342 36.826 36.4896 36.5478 37.2187 36.4261V34.1565C36.5417 33.9652 35.9818 33.5956 35.5391 33.0478C35.0964 32.5 34.875 31.8609 34.875 31.1304C34.875 30.2609 35.1788 29.5217 35.7865 28.9131C36.3941 28.3043 37.1319 28 38 28C38.8681 28 39.6059 28.3043 40.2135 28.9131C40.8212 29.5217 41.125 30.2609 41.125 31.1304C41.125 31.8609 40.8993 32.5 40.4479 33.0478C39.9965 33.5956 39.441 33.9652 38.7812 34.1565V36.4261C39.5104 36.5478 40.1658 36.826 40.7474 37.2608C41.329 37.6956 41.7934 38.226 42.1406 38.8521L44.25 38.1218V37.9131C44.25 37.0435 44.5538 36.3044 45.1615 35.6956C45.7691 35.087 46.5069 34.7826 47.375 34.7826C48.2431 34.7826 48.9809 35.087 49.5885 35.6956C50.1962 36.3044 50.5 37.0435 50.5 37.9131C50.5 38.7826 50.1962 39.5217 49.5885 40.1304C48.9809 40.7391 48.2431 41.0435 47.375 41.0435C46.8194 41.0435 46.3116 40.913 45.8516 40.6522C45.3915 40.3913 45.0226 40.0435 44.7448 39.6087L42.6354 40.313C42.7396 40.9913 42.6962 41.6652 42.5052 42.3347C42.3142 43.0044 41.9757 43.6173 41.4896 44.1739L42.974 46C43.1649 45.913 43.3646 45.8478 43.5729 45.8043C43.7812 45.7608 44.0069 45.7391 44.25 45.7391C45.1181 45.7391 45.8559 46.0435 46.4635 46.6521C47.0712 47.2609 47.375 48 47.375 48.8696C47.375 49.7391 47.0712 50.4782 46.4635 51.0869C45.8559 51.6956 45.1181 52 44.25 52C43.3819 52 42.6441 51.6956 42.0365 51.0869C41.4288 50.4782 41.125 49.7391 41.125 48.8696C41.125 48.5217 41.1814 48.1869 41.2943 47.8652C41.4071 47.5434 41.559 47.2522 41.75 46.9913L40.2656 45.1391C39.5538 45.5391 38.7943 45.7391 37.987 45.7391C37.1797 45.7391 36.4201 45.5391 35.7083 45.1391L34.25 46.9913C34.441 47.2522 34.5929 47.5434 34.7057 47.8652C34.8186 48.1869 34.875 48.5217 34.875 48.8696C34.875 49.7391 34.5712 50.4782 33.9635 51.0869C33.3559 51.6956 32.6181 52 31.75 52Z" fill="white"/>
</g>
<defs>
<filter id="filter0_dd_278_17101" x="0" y="0" width="76" height="80" filterUnits="userSpaceOnUse" color-interpolation-filters="sRGB">
<feFlood flood-opacity="0" result="BackgroundImageFix"/>
<feColorMatrix in="SourceAlpha" type="matrix" values="0 0 0 0 0 0 0 0 0 0 0 0 0 0 0 0 0 0 127 0" result="hardAlpha"/>
<feOffset dx="2" dy="4"/>
<feGaussianBlur stdDeviation="4"/>
<feComposite in2="hardAlpha" operator="out"/>
<feColorMatrix type="matrix" values="0 0 0 0 0.133333 0 0 0 0 0.709804 0 0 0 0 0.45098 0 0 0 0.6 0"/>
<feBlend mode="normal" in2="BackgroundImageFix" result="effect1_dropShadow_278_17101"/>
<feColorMatrix in="SourceAlpha" type="matrix" values="0 0 0 0 0 0 0 0 0 0 0 0 0 0 0 0 0 0 127 0" result="hardAlpha"/>
<feOffset dx="-2" dy="-4"/>
<feGaussianBlur stdDeviation="4"/>
<feComposite in2="hardAlpha" operator="out"/>
<feColorMatrix type="matrix" values="0 0 0 0 0.133333 0 0 0 0 0.709804 0 0 0 0 0.45098 0 0 0 0.6 0"/>
<feBlend mode="normal" in2="effect1_dropShadow_278_17101" result="effect2_dropShadow_278_17101"/>
<feBlend mode="normal" in="SourceGraphic" in2="effect2_dropShadow_278_17101" result="shape"/>
</filter>
</defs>
</svg>
