<svg width="18" height="17" viewBox="0 0 18 17" fill="none" xmlns="http://www.w3.org/2000/svg">
<path d="M16.95 16.2C14.8667 16.2 12.8083 15.7914 10.775 14.9742C8.74167 14.157 6.89167 12.9981 5.225 11.4975C3.55833 9.9969 2.271 8.3319 1.363 6.5025C0.455 4.6731 0.000666667 2.8206 0 0.945C0 0.675 0.0999999 0.45 0.3 0.27C0.5 0.0899999 0.75 0 1.05 0H5.1C5.33333 0 5.54167 0.0713999 5.725 0.2142C5.90833 0.357 6.01667 0.5256 6.05 0.72L6.7 3.87C6.73333 4.11 6.725 4.3125 6.675 4.4775C6.625 4.6425 6.53333 4.785 6.4 4.905L3.975 7.11C4.30833 7.665 4.704 8.2011 5.162 8.7183C5.62 9.2355 6.12433 9.7344 6.675 10.215C7.19167 10.68 7.73333 11.1114 8.3 11.5092C8.86667 11.907 9.46667 12.2706 10.1 12.6L12.45 10.485C12.6 10.35 12.796 10.2489 13.038 10.1817C13.28 10.1145 13.5173 10.0956 13.75 10.125L17.2 10.755C17.4333 10.815 17.625 10.9239 17.775 11.0817C17.925 11.2395 18 11.4156 18 11.61V15.255C18 15.525 17.9 15.75 17.7 15.93C17.5 16.11 17.25 16.2 16.95 16.2Z" fill="black"/>
</svg>
