<svg width="26" height="32" viewBox="0 0 26 32" fill="none" xmlns="http://www.w3.org/2000/svg">
<path d="M23.1653 5.14629L15.0944 0.552565C14.4577 0.190573 13.7353 0 13 0C12.2647 0 11.5423 0.190573 10.9056 0.552565L2.83472 5.13918C1.97268 5.62922 1.25686 6.33409 0.759254 7.18292C0.261645 8.03174 -0.000215492 8.9946 1.33057e-07 9.97468V22.0297C1.33057e-07 24.0261 1.08333 25.8661 2.83472 26.8581L10.9056 31.4447C11.5417 31.8084 12.2643 32 13 32C13.7357 32 14.4583 31.8084 15.0944 31.4447L23.1653 26.8581C24.0263 26.3686 24.7414 25.6649 25.2389 24.8174C25.7365 23.9699 25.9989 23.0085 26 22.0297V9.97646C26 7.98004 24.9167 6.14006 23.1653 5.14629ZM6.90083 9.87513L7.94444 9.52847C8.13311 9.46366 8.30148 9.3518 8.43313 9.2038C8.56477 9.0558 8.65519 8.87671 8.69555 8.68403L9.13611 6.53472C9.14288 6.50807 9.15842 6.48438 9.18031 6.46733C9.20219 6.45029 9.22918 6.44086 9.25708 6.4405C9.31486 6.4405 9.36542 6.47606 9.37625 6.53472L9.81681 8.68581C9.85811 8.87897 9.94974 9.05823 10.0827 9.20597C10.2156 9.35371 10.3854 9.46485 10.5751 9.52847L11.6187 9.87513C11.643 9.88258 11.6642 9.89747 11.6792 9.91762C11.6943 9.93777 11.7024 9.96212 11.7024 9.98713C11.7024 10.0121 11.6943 10.0365 11.6792 10.0566C11.6642 10.0768 11.643 10.0917 11.6187 10.0991L10.5733 10.4458C10.3837 10.5098 10.2142 10.6213 10.0815 10.7694C9.94889 10.9175 9.85766 11.0969 9.81681 11.2902L9.37625 13.4413C9.36922 13.4673 9.35381 13.4904 9.33232 13.5071C9.31083 13.5238 9.28443 13.5331 9.25708 13.5338C9.22918 13.5334 9.20219 13.524 9.18031 13.5069C9.15842 13.4899 9.14288 13.4662 9.13611 13.4395L8.69555 11.2884C8.6566 11.0954 8.56666 10.9159 8.4348 10.7679C8.30293 10.62 8.1338 10.5089 7.94444 10.4458L6.90083 10.0991C6.8776 10.0904 6.8575 10.0751 6.84305 10.0552C6.8286 10.0353 6.82043 10.0116 6.81958 9.98713C6.81958 9.93557 6.85028 9.89291 6.90083 9.87513ZM9.34375 20.9577L7.93903 21.4234C7.68567 21.5087 7.45939 21.6578 7.28264 21.8558C7.1059 22.0539 6.98486 22.294 6.93153 22.5523L6.3393 25.4323C6.3311 25.4677 6.31091 25.4993 6.28203 25.522C6.25315 25.5446 6.21731 25.5568 6.18042 25.5567C6.10458 25.5567 6.03597 25.5087 6.02333 25.4323L5.43111 22.5523C5.37778 22.294 5.25674 22.0539 5.07999 21.8558C4.90325 21.6578 4.67697 21.5087 4.42361 21.4234L3.01889 20.9577C2.98774 20.9468 2.96068 20.9269 2.94133 20.9005C2.92197 20.8742 2.91124 20.8426 2.91056 20.8101C2.91056 20.739 2.95389 20.6786 3.01889 20.6608L4.42361 20.1968C4.67697 20.1115 4.90325 19.9625 5.07999 19.7644C5.25674 19.5664 5.37778 19.3263 5.43111 19.0679L6.02333 16.1879C6.03146 16.1528 6.0514 16.1214 6.0799 16.0988C6.10841 16.0763 6.14383 16.0638 6.18042 16.0635C6.25805 16.0635 6.32667 16.1115 6.3393 16.1879L6.93153 19.0679C7.03986 19.5941 7.42083 20.0226 7.93903 20.195L9.34375 20.6608C9.40514 20.6786 9.45208 20.7426 9.45208 20.8101C9.4514 20.8426 9.44067 20.8742 9.42131 20.9005C9.40195 20.9269 9.3749 20.9468 9.34375 20.9577ZM22.8565 16.3159L19.89 17.3079C19.3551 17.487 18.8772 17.8011 18.504 18.2188C18.1308 18.6364 17.8753 19.1431 17.7631 19.6884L16.51 25.7736C16.4935 25.8489 16.4514 25.9164 16.3907 25.9649C16.3299 26.0134 16.2542 26.04 16.176 26.0403C16.0975 26.0404 16.0213 26.014 15.9602 25.9654C15.899 25.9169 15.8567 25.8492 15.8401 25.7736L14.5889 19.6884C14.4765 19.1429 14.2207 18.6361 13.8472 18.2184C13.4736 17.8007 12.9954 17.4868 12.4601 17.3079L9.49542 16.3159C9.42942 16.2923 9.37239 16.2493 9.33203 16.1927C9.29167 16.1361 9.26992 16.0687 9.26972 15.9995C9.26972 15.8573 9.35639 15.7257 9.49542 15.6831L12.4601 14.6911C12.9954 14.5122 13.4736 14.1983 13.8472 13.7806C14.2207 13.3629 14.4765 12.8561 14.5889 12.3107L15.8401 6.22539C15.8567 6.14981 15.899 6.08211 15.9602 6.03357C16.0213 5.98504 16.0975 5.95862 16.176 5.95873C16.3385 5.95873 16.4775 6.07073 16.51 6.22539L17.7631 12.3107C17.8753 12.8559 18.1308 13.3626 18.504 13.7802C18.8772 14.1979 19.3551 14.512 19.89 14.6911L22.8565 15.6831C22.9225 15.7067 22.9795 15.7498 23.0199 15.8063C23.0603 15.8629 23.082 15.9304 23.0822 15.9995C23.0822 16.1417 22.9956 16.2733 22.8565 16.3159Z" fill="#22B573"/>
</svg>
